<svg xmlns="http://www.w3.org/2000/svg" viewBox="0 0 64 64" width="100%" height="100%">
  <defs>
    <!-- Thermometer Glass (Semi-transparent frost casing) -->
    <linearGradient id="glassBodyWa" x1="0%" y1="0%" x2="100%" y2="100%">
      <stop offset="0%" stop-color="#FFFFFF" stop-opacity="0.9" />
      <stop offset="50%" stop-color="#F8FAFC" stop-opacity="0.5" />
      <stop offset="100%" stop-color="#CBD5E1" stop-opacity="0.8" />
    </linearGradient>

    <!-- Thermometer Fluid (Vibrant scorch red rising into bright orange-pink) -->
    <linearGradient id="hotFluidWa" x1="0%" y1="0%" x2="0%" y2="100%">
      <stop offset="0%" stop-color="#F97316" />
      <stop offset="50%" stop-color="#FF2200" />
      <stop offset="100%" stop-color="#991B1B" />
    </linearGradient>

    <!-- Hot Radiating Ripples -->
    <radialGradient id="rippleGradWa" cx="50%" cy="50%" r="50%">
      <stop offset="80%" stop-color="#FECDD3" stop-opacity="0" />
      <stop offset="95%" stop-color="#F43F5E" stop-opacity="0.6" />
      <stop offset="100%" stop-color="#E11D48" stop-opacity="0.85" />
    </radialGradient>

    <!-- Sun 3D Gradient -->
    <linearGradient id="sunGrad3D" x1="0%" y1="0%" x2="100%" y2="100%">
      <stop offset="0%" stop-color="#FDE047" />
      <stop offset="40%" stop-color="#F59E0B" />
      <stop offset="100%" stop-color="#EA580C" />
    </linearGradient>

    <!-- Person: Tank Top (Sporty vibrant orange-to-scarlet red) -->
    <linearGradient id="shirtGradWa" x1="0%" y1="0%" x2="0%" y2="100%">
      <stop offset="0%" stop-color="#F87171" />
      <stop offset="100%" stop-color="#DC2626" />
    </linearGradient>

    <!-- Person: Bare Skin (Slightly flushed / warm peach tones) -->
    <linearGradient id="skinGradWa" x1="0%" y1="0%" x2="0%" y2="100%">
      <stop offset="0%" stop-color="#FFE4E6" />
      <stop offset="50%" stop-color="#FED7AA" />
      <stop offset="100%" stop-color="#F3A280" />
    </linearGradient>

    <!-- Perspiration Drops (Vibrant cyan/light blue) -->
    <linearGradient id="sweatGradWa" x1="0%" y1="0%" x2="100%" y2="100%">
      <stop offset="0%" stop-color="#BAE6FD" />
      <stop offset="100%" stop-color="#0EA5E9" />
    </linearGradient>

    <!-- Stifling Heat Waves shimmer -->
    <linearGradient id="heatWaveGradWa" x1="0%" y1="0%" x2="100%" y2="0%">
      <stop offset="0%" stop-color="#F59E0B" stop-opacity="0" />
      <stop offset="30%" stop-color="#EF4444" stop-opacity="0.35" />
      <stop offset="70%" stop-color="#F59E0B" stop-opacity="0.35" />
      <stop offset="100%" stop-color="#F59E0B" stop-opacity="0" />
    </linearGradient>

    <!-- Shadows & Filters matching the cooler set for uniformity (Expanded bounding boxes to prevent animation clipping) -->
    <filter id="uiShadowWa" x="-100%" y="-100%" width="300%" height="300%">
      <feDropShadow dx="0" dy="3" stdDeviation="2" flood-color="#020617" flood-opacity="0.4" />
    </filter>
    <filter id="softShadowWa" x="-100%" y="-100%" width="300%" height="300%">
      <feDropShadow dx="0" dy="2" stdDeviation="1" flood-color="#020617" flood-opacity="0.25" />
    </filter>

    <!-- Rocket Popsicle Gradient (Red, White, and Blue) -->
    <linearGradient id="popsicleGrad" x1="0" y1="1" x2="0" y2="0">
      <stop offset="0%" stop-color="#2563EB" /> <!-- Blue -->
      <stop offset="30%" stop-color="#2563EB" />
      <stop offset="31%" stop-color="#FFFFFF" /> <!-- White -->
      <stop offset="63%" stop-color="#FFFFFF" />
      <stop offset="64%" stop-color="#EF4444" /> <!-- Red -->
      <stop offset="100%" stop-color="#EF4444" />
    </linearGradient>

    <!-- Jeremy Allen White-styled hair (Wavy texture, dirty blonde/golden-brown curls) -->
    <linearGradient id="hairGradWa" x1="0%" y1="0%" x2="0%" y2="100%">
      <stop offset="0%" stop-color="#D97706" /> <!-- Gold/Ambar -->
      <stop offset="50%" stop-color="#783F04" /> <!-- Warm rich brown -->
      <stop offset="100%" stop-color="#3F1B02" /> <!-- Dark brown base -->
    </linearGradient>
  </defs>

  <g>

    <!-- LEFT SIDE: SWEATING PERSON (Matching cooler size & coords exactly) -->
    <g>
      <!-- Heavy tired breathing animation (Scale origin near feet at 15, 58.5) -->
      <animateTransform attributeName="transform" type="scale" values="1 1; 1.02 1.02; 1 1" dur="2s" repeatCount="indefinite" additive="sum" transform-origin="15 58.5" />

      <!-- Legs, Crew Socks & Athletic Sneakers -->
      <g>
        <!-- Fleshy Curved Legs with skin gradient -->
        <path d="M 10.3 46 C 10.2 49 10.9 52 11.1 54.5 L 12.9 54.5 C 13.5 52 13.7 49 13.6 46 Z" fill="url(#skinGradWa)" />
        <path d="M 16.3 46 C 16.1 49 16.3 52 16.9 54.5 L 18.7 54.5 C 18.9 52 19.7 49 19.6 46 Z" fill="url(#skinGradWa)" />
        
        <!-- Knee Highlights -->
        <circle cx="12" cy="49.5" r="0.8" fill="#FFFFFF" opacity="0.25" />
        <circle cx="18" cy="49.5" r="0.8" fill="#FFFFFF" opacity="0.25" />

        <!-- Sporty Crew Socks at Ankle -->
        <rect x="10.8" y="53.5" width="2.4" height="1.8" rx="0.4" fill="#FFFFFF" stroke="#E2E8F0" stroke-width="0.3" />
        <line x1="10.8" y1="54.2" x2="13.2" y2="54.2" stroke="#EF4444" stroke-width="0.4" />
        
        <rect x="16.6" y="53.5" width="2.4" height="1.8" rx="0.4" fill="#FFFFFF" stroke="#E2E8F0" stroke-width="0.3" />
        <line x1="16.6" y1="54.2" x2="19" y2="54.2" stroke="#EF4444" stroke-width="0.4" />

        <!-- LEFT SNEAKER (Points Left, Heel on Right) -->
        <!-- Sole/Outsole -->
        <path d="M 8.2 56.8 H 14 V 58 H 8.8 C 8.3 58 8.1 57.4 8.2 56.8 Z" fill="#FFFFFF" stroke="#E2E8F0" stroke-width="0.3" />
        <!-- Upper Body -->
        <path d="M 8.5 56.8 C 8.2 55.0 9.5 54.2 11.2 54.2 C 13.2 54.2 14 55.2 14 56.8 Z" fill="#EF4444" />
        <!-- Toe cap -->
        <path d="M 8.5 56.8 C 8.2 55.6 9.2 55.8 9.5 56.8 Z" fill="#E2E8F0" />
        <!-- Sporty Stripe -->
        <path d="M 11.2 56.3 Q 12.8 55.3 13.5 56" fill="none" stroke="#FFFFFF" stroke-width="0.8" stroke-linecap="round" />
        <!-- Laces -->
        <line x1="10.2" y1="54.8" x2="11" y2="55.6" stroke="#FFFFFF" stroke-width="0.6" stroke-linecap="round" />
        <line x1="11.2" y1="54.8" x2="12" y2="55.6" stroke="#FFFFFF" stroke-width="0.6" stroke-linecap="round" />

        <!-- RIGHT SNEAKER (Points Right, Heel on Left) -->
        <!-- Sole/Outsole -->
        <path d="M 19.8 56.8 H 14 V 58 H 19.2 C 19.7 58 19.9 57.4 19.8 56.8 Z" fill="#FFFFFF" stroke="#E2E8F0" stroke-width="0.3" />
        <!-- Upper Body -->
        <path d="M 19.5 56.8 C 19.8 55.0 18.5 54.2 16.8 54.2 C 14.8 54.2 14 55.2 14 56.8 Z" fill="#EF4444" />
        <!-- Toe cap -->
        <path d="M 19.5 56.8 C 19.8 55.6 18.8 55.8 18.5 56.8 Z" fill="#E2E8F0" />
        <!-- Sporty Stripe -->
        <path d="M 16.8 56.3 Q 15.2 55.3 14.5 56" fill="none" stroke="#FFFFFF" stroke-width="0.8" stroke-linecap="round" />
        <!-- Laces -->
        <line x1="17.8" y1="54.8" x2="17" y2="55.6" stroke="#FFFFFF" stroke-width="0.6" stroke-linecap="round" />
        <line x1="16.8" y1="54.8" x2="16" y2="55.6" stroke="#FFFFFF" stroke-width="0.6" stroke-linecap="round" />
      </g>

      <!-- 3D Torso / Clothes (T-shirt & Shorts) -->
      <g filter="url(#uiShadowWa)">
        <!-- Left arm and hand base (Unified for a seamless, natural connection) -->
        <path d="M 10 33 C 6 33 6 42 8 44.8 C 7.5 45.4 7.5 46.6 8.5 47 L 9.2 46.8 C 10 46 11 46 11 45 C 9 43 10 36 11 33 Z" fill="url(#skinGradWa)" />
        <rect x="9.5" y="32" width="2" height="2" rx="0.5" fill="url(#shirtGradWa)" />

        <!-- Detailed Hand holding popsicle -->
        <g stroke="#F3A280" stroke-width="0.2" filter="url(#softShadowWa)">
          <!-- Index finger curl -->
          <rect x="7.0" y="44.4" width="2.0" height="0.8" rx="0.4" fill="url(#skinGradWa)" />
          <!-- Middle finger curl -->
          <rect x="6.8" y="45.1" width="2.0" height="0.8" rx="0.4" fill="url(#skinGradWa)" />
          <!-- Ring finger curl -->
          <rect x="7.0" y="45.8" width="1.8" height="0.8" rx="0.4" fill="url(#skinGradWa)" />
          <!-- Pinky curl -->
          <rect x="7.4" y="46.5" width="1.4" height="0.7" rx="0.35" fill="url(#skinGradWa)" />
          <!-- Thumb wrapped across the front of the fingers -->
          <path d="M 8.8 44.2 Q 7.5 44.5 7.8 45.4 Q 8.2 45.8 8.8 45.2" fill="url(#skinGradWa)" stroke-linecap="round" />
        </g>

        <!-- Melting Red, White & Blue Rocket Popsicle -->
        <g transform="translate(8, 46) rotate(-20) scale(0.72)">
          <!-- Wooden Stick -->
          <rect x="-0.3" y="-1.5" width="0.6" height="5" rx="0.2" fill="#DDB892" />
          
          <!-- Rocket Popsicle body (Sleek, rounded modern shape) -->
          <path d="M -1.7 -1.5 
                   C -1.9 -4, -1.6 -6.5, -1.3 -8
                   C -1.0 -9.5, -0.7 -11, 0 -11.6
                   C 0.7 -11, 1.0 -9.5, 1.3 -8
                   C 1.6 -6.5, 1.9 -4, 1.7 -1.5
                   C 1.6 -1.2, -1.6 -1.2, -1.7 -1.5 Z" fill="url(#popsicleGrad)" stroke="#172554" stroke-width="0.32" stroke-linejoin="round" />
          
          <!-- Melting overlay lines -->
          <path d="M -1.2 -7 Q -1.0 -5.5 -0.8 -4 C -0.9 -3.0 -0.8 -2.0 -0.8 -1.5 C -1.0 -1.5 -1.1 -2.5 -1.2 -4 Z" fill="#EF4444" opacity="0.9" />
          <path d="M 1.2 -1.5 Q 1.0 -0.2 0.7 1.0 C 0.5 1.0 0.4 0.2 0.5 -1.5 Z" fill="#2563EB" opacity="0.9" />
          
          <!-- Ice highlights -->
          <path d="M -1.2 -3.5 L -1.2 -1.8" stroke="#FFFFFF" stroke-width="0.3" stroke-linecap="round" opacity="0.45" />
          <path d="M -0.9 -6.5 L -0.9 -4.5" stroke="#FFFFFF" stroke-width="0.3" stroke-linecap="round" opacity="0.45" />
        </g>

        <!-- Falling Melted Drops -->
        <!-- Red drippage falling from the top edge -->
        <circle cx="7.2" cy="46" r="0.6" fill="#EF4444">
          <animate attributeName="cy" values="45.5; 55" dur="1.7s" repeatCount="indefinite" begin="0.3s" />
          <animate attributeName="opacity" values="0; 1; 1; 0" keyTimes="0; 0.2; 0.8; 1" dur="1.7s" repeatCount="indefinite" begin="0.3s" />
          <animate attributeName="r" values="0.6; 0.5; 0.3; 0.1" keyTimes="0; 0.2; 0.8; 1" dur="1.7s" repeatCount="indefinite" begin="0.3s" />
        </circle>

        <!-- Blue drippage falling from the bottom -->
        <circle cx="8.8" cy="47.5" r="0.5" fill="#2563EB">
          <animate attributeName="cy" values="47.5; 55" dur="2.1s" repeatCount="indefinite" begin="1s" />
          <animate attributeName="opacity" values="0; 1; 1; 0" keyTimes="0; 0.2; 0.8; 1" dur="2.1s" repeatCount="indefinite" begin="1s" />
          <animate attributeName="r" values="0.5; 0.4; 0.2; 0.1" keyTimes="0; 0.2; 0.8; 1" dur="2.1s" repeatCount="indefinite" begin="1s" />
        </circle>

        <!-- Shorts (Dark Slate Blue) -->
        <rect x="9.5" y="43" width="11" height="5.5" rx="1.5" fill="#1E293B" />

        <!-- Sporty Tank Top -->
        <rect x="10" y="32" width="10" height="12" rx="2.5" fill="url(#shirtGradWa)" filter="url(#softShadowWa)" />
        <path d="M 11.5 32 A 3.5 3.5 0 0 0 18.5 32 Z" fill="#1E293B" opacity="0.15" />  <!-- tank neck cutout -->
      </g>

      <!-- Neck -->
      <rect x="12.8" y="27" width="4.4" height="6" rx="1" fill="url(#skinGradWa)" />

      <!-- Flushed Face & Details -->
      <g filter="url(#softShadowWa)">
        <path d="M 10 25.5 A 5 5 0 0 1 20 25.5 L 20 27.5 Q 19.5 29.5 16.5 30.3 L 13.5 30.3 Q 10.5 29.5 10 27.5 Z" fill="url(#skinGradWa)" />

        <!-- Messy textured wavy hair (Jeremy Allen White look) -->
        <!-- Base hair mass -->
        <path d="M 9.5 24.5 C 9.3 22.2, 10.5 20.2, 12.5 19.5 C 13.8 19.1, 14.5 20.0, 15 20.1 C 15.5 20.0, 16.2 19.1, 17.5 19.5 C 19.5 20.2, 20.7 22.2, 20.5 24.5 C 21.0 23.5, 20.2 21.8, 19.2 21.2 C 18.2 20.6, 17.2 21.0, 16.2 21.6 C 15.5 22.0, 14.5 22.0, 13.8 21.6 C 12.8 21.0, 11.8 20.6, 10.8 21.2 C 9.8 21.8, 9.0 23.5, 9.5 24.5 Z" fill="url(#hairGradWa)" />
        
        <!-- Left sideburn & temples -->
        <path d="M 9.5 22.5 C 9.1 23.5, 9.3 24.5, 9.8 25.2" fill="none" stroke="#451A03" stroke-width="0.35" stroke-linecap="round" />
        <path d="M 9.9 22.5 C 9.6 23.3, 9.7 24.3, 10.1 25.0" fill="none" stroke="#CA8A04" stroke-width="0.25" stroke-linecap="round" opacity="0.8" />
        
        <!-- Right sideburn & temples -->
        <path d="M 20.5 22.5 C 20.9 23.5, 20.7 24.5, 20.2 25.2" fill="none" stroke="#451A03" stroke-width="0.35" stroke-linecap="round" />
        <path d="M 20.1 22.5 C 20.4 23.3, 20.3 24.3, 19.9 25.0" fill="none" stroke="#CA8A04" stroke-width="0.25" stroke-linecap="round" opacity="0.8" />

        <!-- Overlapping curly locks rising/sweeping from forehead -->
        <!-- Left forehead swoop -->
        <path d="M 11.0 22.5 Q 10.8 20.5, 12.2 20.0" fill="none" stroke="#451A03" stroke-width="0.45" stroke-linecap="round" />
        <path d="M 11.2 22.3 Q 11.0 20.8, 12.2 20.2" fill="none" stroke="#CA8A04" stroke-width="0.25" stroke-linecap="round" />
        
        <!-- Right forehead swoop -->
        <path d="M 19.0 22.5 Q 19.2 20.5, 17.8 20.0" fill="none" stroke="#451A03" stroke-width="0.45" stroke-linecap="round" />
        <path d="M 18.8 22.3 Q 19.0 20.8, 17.8 20.2" fill="none" stroke="#CA8A04" stroke-width="0.25" stroke-linecap="round" />

        <!-- Left-center messy curl -->
        <path d="M 12.5 21.8 Q 12.8 19.8, 14.1 20.2" fill="none" stroke="#5C3F0D" stroke-width="0.4" stroke-linecap="round" />
        <path d="M 12.7 22.0 Q 13.0 20.1, 14.0 20.4" fill="none" stroke="#F59E0B" stroke-width="0.25" stroke-linecap="round" />

        <!-- Right-center messy curl -->
        <path d="M 17.5 21.8 Q 17.2 19.8, 15.9 20.2" fill="none" stroke="#5C3F0D" stroke-width="0.4" stroke-linecap="round" />
        <path d="M 17.3 22.0 Q 17.0 20.1, 16.0 20.4" fill="none" stroke="#F59E0B" stroke-width="0.25" stroke-linecap="round" />

        <!-- Top hair volume tufts / crown ripples -->
        <path d="M 11.5 20.2 Q 12.5 19.2, 13.5 19.8" fill="none" stroke="#451A03" stroke-width="0.5" stroke-linecap="round" />
        <path d="M 13.0 19.8 Q 14.2 19.0, 15.0 19.9" fill="none" stroke="#451A03" stroke-width="0.5" stroke-linecap="round" />
        <path d="M 15.0 19.9 Q 15.8 19.0, 17.0 19.8" fill="none" stroke="#451A03" stroke-width="0.5" stroke-linecap="round" />
        <path d="M 16.5 20.2 Q 17.5 19.2, 18.5 19.8" fill="none" stroke="#451A03" stroke-width="0.5" stroke-linecap="round" />

        <!-- High-value blonde accents on the peaks -->
        <path d="M 11.8 20.1 Q 12.6 19.4, 13.3 19.9" fill="none" stroke="#FCD34D" stroke-width="0.3" stroke-linecap="round" />
        <path d="M 13.2 19.7 Q 14.2 19.1, 14.8 19.8" fill="none" stroke="#FCD34D" stroke-width="0.3" stroke-linecap="round" />
        <path d="M 15.2 19.8 Q 15.8 19.1, 16.8 19.7" fill="none" stroke="#FCD34D" stroke-width="0.3" stroke-linecap="round" />
        <path d="M 16.8 20.1 Q 17.6 19.4, 18.3 19.9" fill="none" stroke="#FCD34D" stroke-width="0.3" stroke-linecap="round" />

        <!-- Squinting closed eyelids -->
        <path d="M 11.5 24.6 Q 13 25.1 14.5 24.6" fill="none" stroke="#7C2D12" stroke-width="0.5" stroke-linecap="round" />
        <path d="M 15.5 24.6 Q 17 25.1 18.5 24.6" fill="none" stroke="#7C2D12" stroke-width="0.5" stroke-linecap="round" />
        <!-- Panting Mouth -->
        <ellipse cx="15" cy="28.5" rx="1.2" ry="0.8" fill="#5C1D13" />
      </g>

      <!-- Perspiration drops sliding off temples -->
      <g>
        <path d="M 11 24.5 Q 12 26.5 11 28.5 Q 10 26.5 11 24.5 Z" fill="url(#sweatGradWa)">
          <animateTransform attributeName="transform" type="translate" values="0 0; -2 6" dur="1.5s" repeatCount="indefinite" begin="0s" />
          <animate attributeName="opacity" values="0; 1; 0" keyTimes="0; 0.4; 1" dur="1.5s" repeatCount="indefinite" begin="0s" />
        </path>
        <path d="M 18.5 25 Q 19.5 27 18.5 29 Q 17.5 27 18.5 25 Z" fill="url(#sweatGradWa)">
          <animateTransform attributeName="transform" type="translate" values="0 0; 1.5 5" dur="1.8s" repeatCount="indefinite" begin="0.7s" />
          <animate attributeName="opacity" values="0; 1; 0" keyTimes="0; 0.4; 1" dur="1.8s" repeatCount="indefinite" begin="0.7s" />
        </path>
      </g>

      <!-- Right Arm dynamically wiping the brow -->
      <g>
        <!-- Sleeve shoulder -->
        <rect x="18.5" y="32" width="2" height="2" rx="0.5" fill="url(#shirtGradWa)" />
        <!-- Forearm & hand sweeping in a loop (Bounded to natural waist y=44.2 for perfect proportion) -->
        <path stroke="url(#skinGradWa)" stroke-width="3" stroke-linecap="round" fill="none" filter="url(#softShadowWa)">
          <animate attributeName="d" 
            values="M 19.5 34 C 21.2 37 21.2 42.5 19.8 44.2;
                    M 19.5 34 C 21.5 28 13.0 20.5 11.0 21.5;
                    M 19.5 34 C 21.5 28 17.0 20.5 19.0 21.5;
                    M 19.5 34 C 21.2 37 21.2 42.5 19.8 44.2;
                    M 19.5 34 C 21.2 37 21.2 42.5 19.8 44.2" 
            keyTimes="0; 0.25; 0.55; 0.85; 1" 
            dur="3.2s" 
            repeatCount="indefinite" />
        </path>

        <!-- Detailed Animating Right Hand (Properly positioned at waist length with wrist flip animation) -->
        <g>
          <animateTransform attributeName="transform" type="translate"
            values="19.8 44.2; 11 21.5; 19 21.5; 19.8 44.2; 19.8 44.2"
            keyTimes="0; 0.25; 0.55; 0.85; 1"
            dur="3.2s"
            repeatCount="indefinite" />
          <g stroke="#F3A280" stroke-width="0.25" filter="url(#softShadowWa)">
            <!-- Custom natural wrist bend: straight at waist, tilted 110 deg at brow (pointing away from thermometer), tilted 130 deg at temple (continuing to point away), straight at rest -->
            <animateTransform attributeName="transform" type="rotate"
              values="0; 110; 130; 0; 0"
              keyTimes="0; 0.25; 0.55; 0.85; 1"
              dur="3.2s"
              repeatCount="indefinite" />

            <!-- STATE A: Palm Inward (At the waist/hip, rest state) -->
            <g>
              <animate attributeName="opacity" values="1; 0; 0; 1; 1" keyTimes="0; 0.25; 0.55; 0.85; 1" dur="3.2s" repeatCount="indefinite" />
              <!-- Palm core -->
              <path d="M -1.3 -1.4 C -1.5 0.5, -1.5 2.0, -1.0 2.5 C -0.5 2.8, 0.5 2.8, 1.0 2.5 C 1.5 2.0, 1.5 0.5, 1.3 -1.4" fill="url(#skinGradWa)" />
              <!-- Thumb on the inner/left side -->
              <path d="M -1.0 0.8 C -2.0 0.8, -2.2 1.6, -1.8 2.2 C -1.4 2.8, -0.8 2.3, -0.8 1.6" fill="url(#skinGradWa)" />
              <!-- Relaxed Fingers -->
              <path d="M -0.8 2.2 C -1.0 2.9, -1.0 3.3, -0.7 3.6 C -0.4 3.3, -0.5 2.9, -0.4 2.2" fill="url(#skinGradWa)" />
              <path d="M -0.3 2.3 C -0.4 3.1, -0.3 3.6, 0.0 3.9 C 0.3 3.6, 0.2 3.1, 0.1 2.3" fill="url(#skinGradWa)" />
              <path d="M 0.1 2.2 C 0.2 3.0, 0.3 3.5, 0.5 3.8 C 0.7 3.5, 0.6 3.0, 0.5 2.2" fill="url(#skinGradWa)" />
              <path d="M 0.5 2.0 C 0.7 2.6, 0.8 3.0, 1.0 3.2 C 1.2 3.2, 1.0 2.6, 0.9 2.0" fill="url(#skinGradWa)" />
            </g>

            <!-- STATE B: Palm Outward (Forehead wipe state, with wrist twist) -->
            <g opacity="0">
              <animate attributeName="opacity" values="0; 1; 1; 0; 0" keyTimes="0; 0.25; 0.55; 0.85; 1" dur="3.2s" repeatCount="indefinite" />
              <!-- Palm core -->
              <path d="M -1.3 -1.4 C -1.5 0.5, -1.5 2.0, -1.0 2.5 C -0.5 2.8, 0.5 2.8, 1.0 2.5 C 1.5 2.0, 1.5 0.5, 1.3 -1.4" fill="url(#skinGradWa)" />
              <!-- Thumb on the outer/right side -->
              <path d="M 1.0 0.8 C 2.0 0.8, 2.2 1.6, 1.8 2.2 C 1.4 2.8, 0.8 2.3, 0.8 1.6" fill="url(#skinGradWa)" />
              <!-- Extended fingers wiping sweat across brow -->
              <path d="M -0.7 2.3 C -1.0 3.4, -1.0 4.1, -0.6 4.5 C -0.2 4.1, -0.3 3.4, -0.3 2.3" fill="url(#skinGradWa)" />
              <path d="M -0.2 2.4 C -0.3 3.6, -0.2 4.4, 0.2 4.9 C 0.6 4.4, 0.5 3.6, 0.4 2.4" fill="url(#skinGradWa)" />
              <path d="M 0.2 2.3 C 0.3 3.4, 0.4 4.1, 0.7 4.5 C 1.0 4.1, 0.9 3.4, 0.8 2.3" fill="url(#skinGradWa)" />
              <path d="M 0.6 2.1 C 0.8 3.0, 0.9 3.5, 1.1 3.9 C 1.3 3.5, 1.1 3.0, 0.9 2.1" fill="url(#skinGradWa)" />
            </g>
          </g>
        </g>
      </g>
    </g>

    <!-- CENTER HOT SUN (Golden & Blazing) -->
    <g transform="translate(32, 13)">
      <!-- Pulsing Corona Glow -->
      <circle cx="0" cy="0" r="9" fill="url(#sunGrad3D)" opacity="0.3">
        <animate attributeName="r" values="7.8; 10.2; 7.8" dur="2.2s" repeatCount="indefinite" />
      </circle>
      <!-- Slowly spinning solar beams -->
      <g>
        <animateTransform attributeName="transform" type="rotate" from="0" to="360" dur="30s" repeatCount="indefinite" />
        <path d="M 0 -6.5 L 0 -10.5 M 0 6.5 L 0 10.5 M -6.5 0 L -10.5 0 M 6.5 0 L 10.5 0 M -4.8 -4.8 L -7.8 -7.8 M 4.8 4.8 L 7.8 7.8 M -4.8 4.8 L -7.8 7.8 M 4.8 -4.8 L 7.8 -7.8" stroke="#F59E0B" stroke-width="1.5" stroke-linecap="round" />
      </g>
      <!-- Sun Core Sphere -->
      <circle cx="0" cy="0" r="5.8" fill="url(#sunGrad3D)" filter="url(#uiShadowWa)" />
      <!-- Specular Sphere Highlight -->
      <circle cx="-1.4" cy="-1.4" r="2.0" fill="#FFFFFF" opacity="0.45" />
    </g>

    <!-- RIGHT SIDE: 3D THERMOMETER (Matches cooler layout but heat saturated) -->
    <!-- Heat Waves radiating from the scorching mercury bulb -->
    <g transform="translate(48, 45)">
      <circle cx="0" cy="0" r="7" fill="url(#rippleGradWa)" opacity="0">
        <animateTransform attributeName="transform" type="scale" values="1; 2.8" dur="2s" repeatCount="indefinite" />
        <animate attributeName="opacity" values="0.85; 0" dur="2s" repeatCount="indefinite" />
      </circle>
      <circle cx="0" cy="0" r="7" fill="url(#rippleGradWa)" opacity="0">
        <animateTransform attributeName="transform" type="scale" values="1; 2.8" dur="2s" repeatCount="indefinite" begin="1s" />
        <animate attributeName="opacity" values="0.85; 0" dur="2s" repeatCount="indefinite" begin="1s" />
      </circle>
    </g>

    <!-- Thermometer Casing & Hot Fluid -->
    <g filter="url(#uiShadowWa)">
      <!-- Outer Glass casing -->
      <path d="M 44.5 16 C 44.5 13.5 46 12 48 12 C 50 12 51.5 13.5 51.5 16 L 51.5 37 C 53.5 38.5 55 41.5 55 45 C 55 49 52 52 48 52 C 44 52 41 49 41 45 C 41 41.5 42.5 38.5 44.5 37 Z" fill="url(#glassBodyWa)" />
      
      <!-- Liquid Columns -->
      <g>
        <circle cx="48" cy="45" r="5.5" fill="url(#hotFluidWa)" />
        <!-- Fluid expands to near maximum, pulsing upwards in the casing -->
        <rect x="46" y="14" width="4" height="29" rx="2" fill="url(#hotFluidWa)">
          <animate attributeName="y" values="14; 23; 14" dur="4.2s" repeatCount="indefinite" calcMode="spline" keyTimes="0; 0.5; 1" keySplines="0.4 0 0.2 1; 0.4 0 0.2 1" />
          <animate attributeName="height" values="29; 20; 29" dur="4.2s" repeatCount="indefinite" calcMode="spline" keyTimes="0; 0.5; 1" keySplines="0.4 0 0.2 1; 0.4 0 0.2 1" />
        </rect>
        <ellipse cx="46.5" cy="43.5" rx="1.5" ry="2.5" fill="#FFFFFF" transform="rotate(-30 46.5 43.5)" opacity="0.6" />
      </g>

      <!-- Glass Casing specular reflection highlights -->
      <path d="M 45.5 16 C 45.5 14.5 46.5 13.5 48 13.5 C 49.5 13.5 50.5 14.5 50.5 16 L 50.5 37 C 52 38.5 53.5 41.5 53.5 45 C 53.5 48 51 50.5 48 50.5 C 45 50.5 42.5 48 42.5 45 C 42.5 41.5 44 38.5 45.5 37 Z" fill="none" stroke="#FFFFFF" stroke-width="1" opacity="0.7" />

      <!-- Level Ticks -->
      <g fill="#FFFFFF" opacity="0.8">
        <rect x="52" y="18" width="2" height="1" rx="0.5" />
        <rect x="52" y="23" width="3" height="1" rx="0.5" />
        <rect x="52" y="28" width="2" height="1" rx="0.5" />
        <rect x="52" y="33" width="3" height="1" rx="0.5" />
      </g>
    </g>
  </g>
</svg>