<svg xmlns="http://www.w3.org/2000/svg" viewBox="0 0 64 64">
	<defs>
		<!-- Glass Gradient (Gray/White) -->
		<linearGradient id="glassGrad" x1="18" y1="18" x2="30" y2="46" gradientUnits="userSpaceOnUse">
			<stop offset="0" stop-color="#f3f7fe"/>
			<stop offset="0.5" stop-color="#f3f7fe"/>
			<stop offset="1" stop-color="#deeafb"/>
		</linearGradient>
		<!-- Mercury/Fluid Gradient (Blue/Cyan for generic temp) -->
		<linearGradient id="fluidGrad" x1="21.5" y1="41" x2="26.5" y2="46" gradientUnits="userSpaceOnUse">
			<stop offset="0" stop-color="#5aa2ff"/>
			<stop offset="1" stop-color="#1f6fe6"/>
		</linearGradient>
		<!-- Wave Gradient (Fading out) -->
		<linearGradient id="waveGrad" x1="30" y1="45" x2="50" y2="45" gradientUnits="userSpaceOnUse">
			<stop offset="0" stop-color="#5aa2ff" stop-opacity="0.8"/>
			<stop offset="1" stop-color="#5aa2ff" stop-opacity="0"/>
		</linearGradient>
	</defs>
	<!-- Thermometer Glass -->
	<path fill="url(#glassGrad)" stroke="#e6effc" stroke-width="0.5" stroke-miterlimit="10" d="M24 16a5 5 0 00-5 5v16.32a9 9 0 1010 0V21a5 5 0 00-5-5z"/>
	<!-- Thermometer Fluid (Mercury) -->
	<circle cx="24" cy="44" r="6" fill="url(#fluidGrad)"/>
	<path fill="url(#fluidGrad)" d="M21 24h6v20h-6z"/>
	<!-- Glass Highlights (Reflection) -->
	<path fill="none" stroke="white" stroke-linecap="round" stroke-width="1" opacity="0.6" d="M22 19v12 M21.5 41a3 3 0 002 4"/>
	<!-- Radiating Wave 1 (Inner) -->
	<path fill="none" stroke="url(#waveGrad)" stroke-width="2.5" stroke-linecap="round" d="M34 38 a 8 8 0 0 1 0 12" opacity="0">
		<animate attributeName="opacity" values="0;1;0" dur="2s" repeatCount="indefinite" begin="0s"/>
		<animate attributeName="d" values="M34 38 a 8 8 0 0 1 0 12; M36 36 a 11 11 0 0 1 0 16" dur="2s" repeatCount="indefinite" begin="0s"/>
	</path>
	<!-- Radiating Wave 2 (Outer) -->
	<path fill="none" stroke="url(#waveGrad)" stroke-width="2.5" stroke-linecap="round" d="M34 38 a 8 8 0 0 1 0 12" opacity="0">
		<animate attributeName="opacity" values="0;1;0" dur="2s" repeatCount="indefinite" begin="0.8s"/>
		<animate attributeName="d" values="M34 38 a 8 8 0 0 1 0 12; M36 36 a 11 11 0 0 1 0 16" dur="2s" repeatCount="indefinite" begin="0.8s"/>
	</path>
</svg>