<svg xmlns="http://www.w3.org/2000/svg" xmlns:xlink="http://www.w3.org/1999/xlink" viewBox="0 0 512 512">
	<defs>
		<!-- Sun Gradient -->
		<linearGradient id="a" x1="149.99" y1="119.24" x2="234.01" y2="264.76" gradientUnits="userSpaceOnUse">
			<stop offset="0" stop-color="#fbbf24"/>
			<stop offset="0.45" stop-color="#fbbf24"/>
			<stop offset="1" stop-color="#f59e0b"/>
		</linearGradient>
		<!-- Clip Path for the Cutout -->
		<clipPath id="b">
			<path d="M64,64H448V256H328a72,72,0,0,0-72,72V448H64Z" fill="none"/>
		</clipPath>
		<!-- Sun Symbol (Animated) -->
		<symbol id="c" viewBox="0 0 384 384">
			<!-- sun-core -->
			<circle cx="192" cy="192" r="84" stroke="#f8af18" stroke-miterlimit="10" stroke-width="6" fill="url(#a)"/>
			<!-- sun-rays (Rotating) -->
			<path d="M192,61.66V12m0,360V322.34M284.17,99.83l35.11-35.11M64.72,319.28l35.11-35.11m0-184.34L64.72,64.72M319.28,319.28l-35.11-35.11M61.66,192H12m360,0H322.34" fill="none" stroke="#fbbf24" stroke-linecap="round" stroke-miterlimit="10" stroke-width="24">
				<animateTransform attributeName="transform" additive="sum" type="rotate" values="0 192 192; 45 192 192" dur="6s" repeatCount="indefinite"/>
			</path>
		</symbol>
	</defs>
	<!-- Main Group with Clip -->
	<g clip-path="url(#b)">
		<use width="384" height="384" transform="translate(64 64)" xlink:href="#c"/>
		<path d="M254,338V328a74,74,0,0,1,74-74h10" fill="none" stroke="#f8af18" stroke-miterlimit="10" stroke-width="6"/>
	</g>
	<!-- Background Rectangle (Grayish #b0b0b0) -->
	<rect x="280" y="280" width="144" height="144" rx="48" fill="#b0b0b0"/>
	<!-- Number 0 (White) -->
	<path d="M352,324c-16.5,0-28,12-28,34s11.5,34,28,34s28-12,28-34S368.5,324,352,324z M352,380c-7.5,0-14-6-14-22s6.5-22,14-22s14,6,14,22S359.5,380,352,380z" fill="#fff"/>
</svg>